HIERARCHY
ROOT Hips
{
  OFFSET 2.088 40.310 -211.907
  CHANNELS 6 Xposition Yposition Zposition Zrotation Xrotation Yrotation
  JOINT LeftUpLeg
  {
    OFFSET 7.182 -4.400 5.192
    CHANNELS 6 Xposition Yposition Zposition Zrotation Xrotation Yrotation
    JOINT LeftLeg
    {
      OFFSET 0.000 -45.749 0.000
      CHANNELS 6 Xposition Yposition Zposition Zrotation Xrotation Yrotation
      JOINT LeftFoot
      {
        OFFSET -0.000 -38.638 -0.000
        CHANNELS 6 Xposition Yposition Zposition Zrotation Xrotation Yrotation
        End Site
        {
          OFFSET 0.000 -8.970 5.179
        }
      }
    }
  }
  JOINT RightUpLeg
  {
    OFFSET -7.156 -4.743 5.216
    CHANNELS 6 Xposition Yposition Zposition Zrotation Xrotation Yrotation
    JOINT RightLeg
    {
      OFFSET 0.000 -46.397 0.000
      CHANNELS 6 Xposition Yposition Zposition Zrotation Xrotation Yrotation
      JOINT RightFoot
      {
        OFFSET -0.000 -38.072 -0.000
        CHANNELS 6 Xposition Yposition Zposition Zrotation Xrotation Yrotation
        End Site
        {
          OFFSET 0.000 -8.816 5.090
        }
      }
    }
  }
  JOINT Spine
  {
    OFFSET 0.000 3.908 -3.908
    CHANNELS 6 Xposition Yposition Zposition Zrotation Xrotation Yrotation
    JOINT LeftShoulder
    {
      OFFSET -0.000 34.546 0.000
      CHANNELS 6 Xposition Yposition Zposition Zrotation Xrotation Yrotation
      JOINT LeftArm
      {
        OFFSET 18.743 0.000 -0.000
        CHANNELS 6 Xposition Yposition Zposition Zrotation Xrotation Yrotation
        JOINT LeftForeArm
        {
          OFFSET 24.206 0.000 0.000
          CHANNELS 6 Xposition Yposition Zposition Zrotation Xrotation Yrotation
          JOINT LeftHand
          {
            OFFSET 23.289 0.000 -0.000
            CHANNELS 6 Xposition Yposition Zposition Zrotation Xrotation Yrotation
            JOINT LeftHandThumb1
            {
            OFFSET 4.970 -0.620 3.390
            CHANNELS 6 Xposition Yposition Zposition Zrotation Xrotation Yrotation
              JOINT LeftHandThumb2
              {
              OFFSET 2.150 -0.000 0.000
              CHANNELS 6 Xposition Yposition Zposition Zrotation Xrotation Yrotation
                JOINT LeftHandThumb3
                {
                OFFSET 2.200 -0.000 0.000
                CHANNELS 6 Xposition Yposition Zposition Zrotation Xrotation Yrotation
                  JOINT LeftHandThumb4
                  {
                  OFFSET 1.700 -0.000 0.000
                  CHANNELS 6 Xposition Yposition Zposition Zrotation Xrotation Yrotation
                  }
                }
              }
            }
            JOINT LeftHandIndex1
            {
            OFFSET 8.730 0.680 2.070
            CHANNELS 6 Xposition Yposition Zposition Zrotation Xrotation Yrotation
              JOINT LeftHandIndex2
              {
              OFFSET 2.670 -0.000 0.000
              CHANNELS 6 Xposition Yposition Zposition Zrotation Xrotation Yrotation
                JOINT LeftHandIndex3
                {
                OFFSET 2.130 -0.000 0.000
                CHANNELS 6 Xposition Yposition Zposition Zrotation Xrotation Yrotation
                  JOINT LeftHandIndex4
                  {
                  OFFSET 1.800 -0.000 0.000
                  CHANNELS 6 Xposition Yposition Zposition Zrotation Xrotation Yrotation
                  }
                }
              }
            }
            JOINT LeftHandMiddle1
            {
            OFFSET 9.220 0.670 0.550
            CHANNELS 6 Xposition Yposition Zposition Zrotation Xrotation Yrotation
              JOINT LeftHandMiddle2
              {
              OFFSET 2.660 -0.000 0.000
              CHANNELS 6 Xposition Yposition Zposition Zrotation Xrotation Yrotation
                JOINT LeftHandMiddle3
                {
                OFFSET 2.280 -0.000 0.000
                CHANNELS 6 Xposition Yposition Zposition Zrotation Xrotation Yrotation
                  JOINT LeftHandMiddle4
                  {
                  OFFSET 1.500 -0.000 0.000
                  CHANNELS 6 Xposition Yposition Zposition Zrotation Xrotation Yrotation
                  }
                }
              }
            }
            JOINT LeftHandRing1
            {
            OFFSET 9.250 0.670 -1.130
            CHANNELS 6 Xposition Yposition Zposition Zrotation Xrotation Yrotation
              JOINT LeftHandRing2
              {
              OFFSET 2.470 -0.000 0.000
              CHANNELS 6 Xposition Yposition Zposition Zrotation Xrotation Yrotation
                JOINT LeftHandRing3
                {
                OFFSET 2.210 -0.000 0.000
                CHANNELS 6 Xposition Yposition Zposition Zrotation Xrotation Yrotation
                  JOINT LeftHandRing4
                  {
                  OFFSET 1.800 -0.000 0.000
                  CHANNELS 6 Xposition Yposition Zposition Zrotation Xrotation Yrotation
                  }
                }
              }
            }
            JOINT LeftHandPinky1
            {
            OFFSET 9.350 0.660 -2.720
            CHANNELS 6 Xposition Yposition Zposition Zrotation Xrotation Yrotation
              JOINT LeftHandPinky2
              {
              OFFSET 1.630 -0.000 0.000
              CHANNELS 6 Xposition Yposition Zposition Zrotation Xrotation Yrotation
                JOINT LeftHandPinky3
                {
                OFFSET 1.710 -0.000 0.000
                CHANNELS 6 Xposition Yposition Zposition Zrotation Xrotation Yrotation
                  JOINT LeftHandPinky4
                  {
                  OFFSET 1.800 -0.000 0.000
                  CHANNELS 6 Xposition Yposition Zposition Zrotation Xrotation Yrotation
                  }
                }
              }
            }
          }
        }
      }
    }
    JOINT RightShoulder
    {
      OFFSET -0.000 34.546 0.000
      CHANNELS 6 Xposition Yposition Zposition Zrotation Xrotation Yrotation
      JOINT RightArm
      {
        OFFSET -19.110 0.000 -0.000
        CHANNELS 6 Xposition Yposition Zposition Zrotation Xrotation Yrotation
        JOINT RightForeArm
        {
          OFFSET -24.424 0.000 0.000
          CHANNELS 6 Xposition Yposition Zposition Zrotation Xrotation Yrotation
          JOINT RightHand
          {
            OFFSET -24.869 0.000 -0.000
            CHANNELS 6 Xposition Yposition Zposition Zrotation Xrotation Yrotation
            JOINT RightHandThumb1
            {
            OFFSET -4.970 -0.620 3.390
            CHANNELS 6 Xposition Yposition Zposition Zrotation Xrotation Yrotation
              JOINT RightHandThumb2
              {
              OFFSET -2.150 0.000 0.000
              CHANNELS 6 Xposition Yposition Zposition Zrotation Xrotation Yrotation
                JOINT RightHandThumb3
                {
                OFFSET -2.200 0.000 0.000
                CHANNELS 6 Xposition Yposition Zposition Zrotation Xrotation Yrotation
                  JOINT RightHandThumb4
                  {
                  OFFSET -1.700 0.000 0.000
                  CHANNELS 6 Xposition Yposition Zposition Zrotation Xrotation Yrotation
                  }
                }
              }
            }
            JOINT RightHandIndex1
            {
            OFFSET -8.730 0.680 2.070
            CHANNELS 6 Xposition Yposition Zposition Zrotation Xrotation Yrotation
              JOINT RightHandIndex2
              {
              OFFSET -2.670 0.000 0.000
              CHANNELS 6 Xposition Yposition Zposition Zrotation Xrotation Yrotation
                JOINT RightHandIndex3
                {
                OFFSET -2.130 0.000 0.000
                CHANNELS 6 Xposition Yposition Zposition Zrotation Xrotation Yrotation
                  JOINT RightHandIndex4
                  {
                  OFFSET -1.800 0.000 0.000
                  CHANNELS 6 Xposition Yposition Zposition Zrotation Xrotation Yrotation
                  }
                }
              }
            }
            JOINT RightHandMiddle1
            {
            OFFSET -9.220 0.670 0.550
            CHANNELS 6 Xposition Yposition Zposition Zrotation Xrotation Yrotation
              JOINT RightHandMiddle2
              {
              OFFSET -2.660 0.000 0.000
              CHANNELS 6 Xposition Yposition Zposition Zrotation Xrotation Yrotation
                JOINT RightHandMiddle3
                {
                OFFSET -2.280 0.000 0.000
                CHANNELS 6 Xposition Yposition Zposition Zrotation Xrotation Yrotation
                  JOINT RightHandMiddle4
                  {
                  OFFSET -1.500 0.000 0.000
                  CHANNELS 6 Xposition Yposition Zposition Zrotation Xrotation Yrotation
                  }
                }
              }
            }
            JOINT RightHandRing1
            {
            OFFSET -9.250 0.670 -1.130
            CHANNELS 6 Xposition Yposition Zposition Zrotation Xrotation Yrotation
              JOINT RightHandRing2
              {
              OFFSET -2.470 0.000 0.000
              CHANNELS 6 Xposition Yposition Zposition Zrotation Xrotation Yrotation
                JOINT RightHandRing3
                {
                OFFSET -2.210 0.000 0.000
                CHANNELS 6 Xposition Yposition Zposition Zrotation Xrotation Yrotation
                  JOINT RightHandRing4
                  {
                  OFFSET -1.800 0.000 0.000
                  CHANNELS 6 Xposition Yposition Zposition Zrotation Xrotation Yrotation
                  }
                }
              }
            }
            JOINT RightHandPinky1
            {
            OFFSET -9.350 0.660 -2.720
            CHANNELS 6 Xposition Yposition Zposition Zrotation Xrotation Yrotation
              JOINT RightHandPinky2
              {
              OFFSET -1.630 0.000 0.000
              CHANNELS 6 Xposition Yposition Zposition Zrotation Xrotation Yrotation
                JOINT RightHandPinky3
                {
                OFFSET -1.710 0.000 0.000
                CHANNELS 6 Xposition Yposition Zposition Zrotation Xrotation Yrotation
                  JOINT RightHandPinky4
                  {
                  OFFSET -1.800 0.000 0.000
                  CHANNELS 6 Xposition Yposition Zposition Zrotation Xrotation Yrotation
                  }
                }
              }
            }
          }
        }
      }
    }
    JOINT Neck
    {
      OFFSET -0.000 34.546 0.000
      CHANNELS 6 Xposition Yposition Zposition Zrotation Xrotation Yrotation
      JOINT Head
      {
        OFFSET -0.000 11.900 -0.000
        CHANNELS 6 Xposition Yposition Zposition Zrotation Xrotation Yrotation
        End Site
        {
          OFFSET -0.000 0.048 -0.000
        }
      }
    }
  }
}
MOTION
Frames:	4
Frame Time:	0.0333333
2.13493 39.3451 -197.77 8.41178 54.5233 -14.1203 7.17253 -4.32464 5.04957 8.98132 -43.9812 7.24674 2.98023e-06 -47.7201 -2.38419e-05 -7.15684 -2.05256 -0.257668 0 -37.5413 0 12.6562 -13.6568 10.2605 -7.3203 -4.58728 5.65342 1.10592 -43.5042 1.7773 -2.98023e-06 -48.3723 3.57628e-05 3.7609 -1.03752 0.0681987 0 -38.3908 -9.53674e-05 -10.8048 -13.445 -8.67089 2.98023e-06 4.03147 -4.03144 0.949001 -48.088 0.613557 -2.98023e-06 34.5461 -1.19209e-05 -26.5373 9.39151e-06 1.54332 16.9388 0 -4.76837e-05 -42.001 17.396 -13.231 21.1738 1.19209e-05 2.38419e-05 -6.28902e-06 -6.83019e-06 -21.0564 19.8767 0 0 -11.9113 -0.659939 9.69395 0.0062 0.0497 0.0339 0 0 0 0 0.0215 0 0 0 0 0 0.022 0 0 0 0 0 0.017 0 0 0 0 -0.0068 0.0873 0.0207 0 0 0 0 0.0267 0 0 0 0 0 0.0213 0 0 0 0 0 0.018 0 0 0 0 -0.0067 0.0922 0.0055 0 0 0 0 0.0266 0 0 0 0 0 0.0228 0 0 0 0 0 0.015 0 0 0 0 -0.0067 0.0925 -0.0113 0 0 0 0 0.0247 0 0 0 0 0 0.0221 0 0 0 0 0 0.018 0 0 0 0 -0.0066 0.0935 -0.0272 0 0 0 0 0.0163 0 0 0 0 0 0.0171 0 0 0 0 0 0.018 0 0 0 0 -2.98023e-06 34.5461 -1.19209e-05 26.2188 -3.41509e-06 -1.41416 -18.4857 0 1.19209e-05 23.9381 54.4497 23.8858 -22.2963 3.57628e-05 3.57628e-05 4.49003e-06 -1.70755e-06 23.8683 -19.8321 -3.57628e-05 -3.57628e-05 19.5583 -0.420994 -3.26164 -0.0062 0.0497 0.0339 22.3269 0 0 0 0.0215 0 0 -22.3269 0 0 0.022 0 0 -22.3269 0 0 0.017 0 0 0 0 0.0068 0.0873 0.0207 22.3269 0 0 0 0.0267 0 39.6922 0 0 0 0.0213 0 44.6537 0 0 0 0.018 0 0 0 0 0.0067 0.0922 0.0055 22.3269 0 0 0 0.0266 0 39.6922 0 0 0 0.0228 0 44.6537 0 0 0 0.015 0 0 0 0 0.0067 0.0925 -0.0113 22.3269 0 0 0 0.0247 0 39.6922 0 0 0 0.0221 0 44.6537 0 0 0 0.018 0 0 0 0 0.0066 0.0935 -0.0272 22.3269 0 0 0 0.0163 0 39.6922 0 0 0 0.0171 0 44.6537 0 0 0 0.018 0 0 0 0 -2.98023e-06 34.5461 -1.19209e-05 -2.43614 47.0194 1.78275 -2.98023e-06 13.047 -1.19209e-05 1.02453e-05 -6.83019e-06 1.28066e-06 
2.13493 39.3451 -197.77 8.41178 54.5233 -14.1203 7.17253 -4.32464 5.04957 8.98132 -43.9812 7.24674 2.98023e-06 -47.7201 -2.38419e-05 -7.15684 -2.05256 -0.257668 0 -37.5413 0 12.6562 -13.6568 10.2605 -7.3203 -4.58728 5.65342 1.10592 -43.5042 1.7773 -2.98023e-06 -48.3723 3.57628e-05 3.7609 -1.03752 0.0681987 0 -38.3908 -9.53674e-05 -10.8048 -13.445 -8.67089 2.98023e-06 4.03147 -4.03144 0.949001 -48.088 0.613557 -2.98023e-06 34.5461 -1.19209e-05 -26.5373 9.39151e-06 1.54332 16.9388 0 -4.76837e-05 -42.001 17.396 -13.231 21.1738 1.19209e-05 2.38419e-05 -6.28902e-06 -6.83019e-06 -21.0564 19.8767 0 0 -11.9113 -0.659939 9.69395 0.0062 0.0497 0.0339 0 0 0 0 0.0215 0 0 0 0 0 0.022 0 0 0 0 0 0.017 0 0 0 0 -0.0068 0.0873 0.0207 0 0 0 0 0.0267 0 0 0 0 0 0.0213 0 0 0 0 0 0.018 0 0 0 0 -0.0067 0.0922 0.0055 0 0 0 0 0.0266 0 0 0 0 0 0.0228 0 0 0 0 0 0.015 0 0 0 0 -0.0067 0.0925 -0.0113 0 0 0 0 0.0247 0 0 0 0 0 0.0221 0 0 0 0 0 0.018 0 0 0 0 -0.0066 0.0935 -0.0272 0 0 0 0 0.0163 0 0 0 0 0 0.0171 0 0 0 0 0 0.018 0 0 0 0 -2.98023e-06 34.5461 -1.19209e-05 26.2188 -3.41509e-06 -1.41416 -18.4857 0 1.19209e-05 23.9381 54.4497 23.8858 -22.2963 3.57628e-05 3.57628e-05 4.49003e-06 -1.70755e-06 23.8683 -19.8321 -3.57628e-05 -3.57628e-05 19.5583 -0.420994 -3.26164 -0.0062 0.0497 0.0339 22.3269 0 0 0 0.0215 0 0 -22.3269 0 0 0.022 0 0 -22.3269 0 0 0.017 0 0 0 0 0.0068 0.0873 0.0207 22.3269 0 0 0 0.0267 0 39.6922 0 0 0 0.0213 0 44.6537 0 0 0 0.018 0 0 0 0 0.0067 0.0922 0.0055 22.3269 0 0 0 0.0266 0 39.6922 0 0 0 0.0228 0 44.6537 0 0 0 0.015 0 0 0 0 0.0067 0.0925 -0.0113 22.3269 0 0 0 0.0247 0 39.6922 0 0 0 0.0221 0 44.6537 0 0 0 0.018 0 0 0 0 0.0066 0.0935 -0.0272 22.3269 0 0 0 0.0163 0 39.6922 0 0 0 0.0171 0 44.6537 0 0 0 0.018 0 0 0 0 -2.98023e-06 34.5461 -1.19209e-05 -2.43614 47.0194 1.78275 -2.98023e-06 13.047 -1.19209e-05 1.02453e-05 -6.83019e-06 1.28066e-06 
1.8119 39.6088 -197.574 7.77815 55.024 -13.568 7.24314 -4.36238 5.09056 9.7199 -44.4931 7.82862 0 -47.8359 0 -7.04861 -1.64852 -0.203804 1.49012e-06 -37.6128 0 12.3685 -13.9879 10.0873 -7.37698 -4.63264 5.71353 1.77275 -43.7723 2.25534 -8.9407e-06 -48.5375 1.19209e-05 3.91822 -1.16554 0.0798247 -2.98023e-06 -38.4176 -2.38419e-05 -11.0862 -13.1545 -8.84616 2.98023e-06 4.04124 -4.04123 0.781822 -47.7616 0.496154 -5.96046e-06 34.5461 -1.19209e-05 -27.6085 1.02453e-05 4.15008 16.8139 8.9407e-06 0 -35.5191 2.85981 -2.49482 20.6779 5.96046e-06 0 -3.08807 0.905184 -16.3214 20.4488 -9.31323e-06 0 -2.28319 -0.0852611 12.5697 0.0062 0.0497 0.0339 0 0 0 0 0.0215 0 0 0 0 0 0.022 0 0 0 0 0 0.017 0 0 0 0 -0.0068 0.0873 0.0207 0 0 0 0 0.0267 0 0 0 0 0 0.0213 0 0 0 0 0 0.018 0 0 0 0 -0.0067 0.0922 0.0055 0 0 0 0 0.0266 0 0 0 0 0 0.0228 0 0 0 0 0 0.015 0 0 0 0 -0.0067 0.0925 -0.0113 0 0 0 0 0.0247 0 0 0 0 0 0.0221 0 0 0 0 0 0.018 0 0 0 0 -0.0066 0.0935 -0.0272 0 0 0 0 0.0163 0 0 0 0 0 0.0171 0 0 0 0 0 0.018 0 0 0 0 -5.96046e-06 34.5461 -1.19209e-05 26.4345 -6.61674e-06 -3.67623 -18.9777 2.98023e-05 -2.38419e-05 37.6564 2.31827 2.76445 -22.6831 -1.19209e-05 2.38419e-05 14.1142 1.93161 7.63505 -20.6111 5.96046e-06 1.19209e-05 15.5575 -0.682552 -7.23103 -0.0062 0.0497 0.0339 16.181 0 0 0 0.0215 0 0 -16.181 0 0 0.022 0 0 -16.181 0 0 0.017 0 0 0 0 0.0068 0.0873 0.0207 16.181 0 0 0 0.0267 0 28.7662 0 0 0 0.0213 0 32.362 0 0 0 0.018 0 0 0 0 0.0067 0.0922 0.0055 16.181 0 0 0 0.0266 0 28.7662 0 0 0 0.0228 0 32.362 0 0 0 0.015 0 0 0 0 0.0067 0.0925 -0.0113 16.181 0 0 0 0.0247 0 28.7662 0 0 0 0.0221 0 32.362 0 0 0 0.018 0 0 0 0 0.0066 0.0935 -0.0272 16.181 0 0 0 0.0163 0 28.7662 0 0 0 0.0171 0 32.362 0 0 0 0.018 0 0 0 0 -5.96046e-06 34.5461 -1.19209e-05 -1.78626 44.6235 1.25496 0 12.3242 -1.19209e-05 1.10991e-05 -1.19528e-05 -1.70755e-06 
1.89233 39.8554 -197.662 -0.89778 50.9225 -11.0374 7.69053 -4.17001 4.31129 16.9205 -38.7112 12.4921 1.19209e-05 -47.8614 -1.19209e-05 -6.94686 -1.15873 -0.141172 -8.19564e-06 -37.7387 0 12.0997 -14.2143 9.90968 -6.9295 -5.5346 6.03137 9.59935 -38.1239 7.88376 0 -48.7242 1.19209e-05 3.88135 -1.36948 0.0929022 -2.98023e-06 -38.3748 2.38419e-05 -11.232 -12.8455 -8.90942 5.96046e-06 3.94634 -3.94633 -0.253966 -46.1838 -0.334813 0 34.5461 0 -30.5399 1.62217e-05 -4.4245 12.4916 1.19209e-05 -3.57628e-05 -21.8956 8.94946 17.2699 20.8281 -1.04308e-05 2.38419e-05 -2.42008 0.698814 -16.0969 20.6565 -1.04308e-05 0 0.392512 0.123078 12.4762 0.0062 0.0497 0.0339 0 0 0 0 0.0215 0 0 0 0 0 0.022 0 0 0 0 0 0.017 0 0 0 0 -0.0068 0.0873 0.0207 0 0 0 0 0.0267 0 0 0 0 0 0.0213 0 0 0 0 0 0.018 0 0 0 0 -0.0067 0.0922 0.0055 0 0 0 0 0.0266 0 0 0 0 0 0.0228 0 0 0 0 0 0.015 0 0 0 0 -0.0067 0.0925 -0.0113 0 0 0 0 0.0247 0 0 0 0 0 0.0221 0 0 0 0 0 0.018 0 0 0 0 -0.0066 0.0935 -0.0272 0 0 0 0 0.0163 0 0 0 0 0 0.0171 0 0 0 0 0 0.018 0 0 0 0 0 34.5461 0 26.2358 1.06722e-06 2.3154 -23.8531 1.19209e-05 2.38419e-05 42.1014 3.4325 -13.9833 -23.3735 1.19209e-05 2.38419e-05 11.5124 1.2862 6.28895 -21.5343 0 -4.76837e-05 13.7119 -0.39265 -5.09999 -0.0062 0.0497 0.0339 11.3765 0 0 0 0.0215 0 0 -11.3765 0 0 0.022 0 0 -11.3765 0 0 0.017 0 0 0 0 0.0068 0.0873 0.0207 11.3765 0 0 0 0.0267 0 20.2249 0 0 0 0.0213 0 22.753 0 0 0 0.018 0 0 0 0 0.0067 0.0922 0.0055 11.3765 0 0 0 0.0266 0 20.2249 0 0 0 0.0228 0 22.753 0 0 0 0.015 0 0 0 0 0.0067 0.0925 -0.0113 11.3765 0 0 0 0.0247 0 20.2249 0 0 0 0.0221 0 22.753 0 0 0 0.018 0 0 0 0 0.0066 0.0935 -0.0272 11.3765 0 0 0 0.0163 0 20.2249 0 0 0 0.0171 0 22.753 0 0 0 0.018 0 0 0 0 0 34.5461 0 22.2445 50.9072 -17.6112 5.96046e-06 13.6077 -1.19209e-05 1.19528e-05 -8.53774e-06 -8.53774e-07 
